<?xml version="1.0" encoding="UTF-8"?>
<svg id="Layer_1" data-name="Layer 1" xmlns="http://www.w3.org/2000/svg" viewBox="0 0 576 297">
  <defs>
    <style>
      .cls-1 {
        fill: #29abe2;
      }

      .cls-1, .cls-2, .cls-3 {
        stroke-width: 0px;
      }

      .cls-2 {
        fill: #1a1a1a;
      }

      .cls-3 {
        fill: #fff;
      }
    </style>
  </defs>
  <g>
    <g>
      <path class="cls-2" d="m460.35,147.82c-9.02,25.73-19.25,51.2-32.42,75.12-4.85,8.81-10.13,17.41-16.04,25.56-.64.89-1.3,1.77-1.96,2.64-.32.43-.65.86-.98,1.28.4-.52-.14.18-.18.23-.22.28-.43.55-.65.83-1.32,1.67-2.67,3.32-4.06,4.93-2.51,2.92-5.14,5.75-7.91,8.43-2.5,2.42-5.13,4.69-7.85,6.86-.55.44.53-.4-.03.02-.16.12-.32.24-.48.36-.32.24-.64.48-.96.71-.68.5-1.37.99-2.07,1.46-1.24.85-2.51,1.67-3.8,2.44s-2.6,1.5-3.94,2.18c-.62.32-1.25.62-1.88.92-.31.15-.62.29-.94.43-.24.11-1.49.63-.53.24-2.48,1.02-5,1.9-7.6,2.57-1.27.32-2.55.6-3.84.83-.56.1-1.12.18-1.68.26-.59.09.78-.09.19-.03-.15.02-.3.04-.46.06-.35.04-.71.08-1.06.11-2.5.24-5.02.28-7.53.13-1.17-.07-2.43-.08-3.57-.34,1.09.25.04,0-.24-.04-.3-.04-.59-.09-.88-.14-.64-.11-1.28-.23-1.91-.36-2.41-.5-4.79-1.16-7.11-1.97-1.21-.42-2.39-.89-3.57-1.36-.55-.22.69.3.15.06-.14-.06-.28-.12-.43-.18-.28-.12-.57-.25-.85-.38-.57-.26-1.13-.52-1.69-.79-2.38-1.15-4.69-2.43-6.94-3.82s-4.49-2.91-6.63-4.5c-.54-.4-1.07-.8-1.6-1.21.8.61-.14-.11-.32-.25-.31-.24-.62-.49-.92-.74-1.06-.85-2.11-1.73-3.14-2.62-4.4-3.8-8.53-7.9-12.44-12.19-2-2.19-3.95-4.43-5.85-6.72-.98-1.18-1.94-2.37-2.9-3.57-.46-.58-.92-1.16-1.37-1.74-.11-.15-.23-.29-.34-.44-.41-.52.42.55.02.02-.24-.32-.49-.64-.73-.96-7.37-9.67-14.03-19.88-20.19-30.36-5.62-9.56-10.82-19.36-15.69-29.32-3.72-7.62-7.25-15.33-10.57-23.13-.14-.33-.61-1.68-.2-.47-.13-.38-.32-.76-.48-1.13-.27-.65-.54-1.3-.81-1.95-.47-1.15-.94-2.29-1.4-3.44-.54-1.34-1.07-2.69-1.59-4.05-.07-.17-.13-.35-.2-.52-.56-1.52-2.03-2.55-3.69-2.1-1.46.4-2.66,2.16-2.1,3.69,1.04,2.8,2.17,5.56,3.31,8.32,3.03,7.34,6.25,14.6,9.64,21.78,4.59,9.72,9.49,19.3,14.75,28.67,5.95,10.59,12.36,20.94,19.43,30.82,7.13,9.97,14.91,19.56,23.75,28.08,8.01,7.72,17,14.75,27.13,19.46,9.48,4.41,19.96,6.8,30.43,5.64,12.19-1.35,23.15-6.87,32.72-14.38,13.33-10.46,23.78-24.42,32.7-38.69,13.4-21.44,23.74-44.75,32.85-68.28,2.75-7.1,5.36-14.25,7.88-21.43.54-1.53-.61-3.28-2.1-3.69-1.65-.45-3.15.56-3.69,2.1h0Z"/>
      <path class="cls-2" d="m8.48,149.42c1.02-2.76,2.13-5.49,3.24-8.21.28-.68.56-1.37.85-2.05.15-.35.29-.7.44-1.05.06-.15.13-.3.19-.45.35-.84-.22.52,0-.02.71-1.68,1.43-3.35,2.16-5.02,1.72-3.94,3.49-7.86,5.32-11.76,4.54-9.7,9.39-19.26,14.59-28.62,5.86-10.54,12.17-20.85,19.13-30.71,1.75-2.48,3.53-4.92,5.36-7.34.22-.29.45-.59.67-.88.11-.15.23-.29.34-.44.4-.53-.43.55-.02.02.49-.63.98-1.26,1.48-1.88.95-1.2,1.91-2.39,2.89-3.56,3.78-4.56,7.75-8.96,11.97-13.12,2.06-2.03,4.17-3.99,6.36-5.88,1.07-.92,2.15-1.83,3.25-2.72.48-.39.96-.76,1.45-1.14s-.57.43-.08.06c.13-.1.26-.2.4-.3.31-.23.62-.47.93-.7,4.29-3.18,8.83-6.04,13.64-8.36.51-.25,1.03-.49,1.54-.72.28-.13.56-.25.84-.37.14-.06.28-.12.42-.18.48-.21-.75.3-.01,0,1.18-.48,2.36-.93,3.55-1.35,2.36-.81,4.77-1.48,7.22-1.97.58-.12,1.17-.23,1.75-.32.29-.05.59-.09.88-.14.15-.02.29-.04.44-.06.56-.09-.83.1-.14.02,1.21-.14,2.41-.26,3.62-.33,2.5-.13,5-.07,7.49.18.3.03.6.07.91.1.15.02.3.04.45.06-1-.11-.41-.06-.19-.02.66.1,1.32.2,1.97.32,1.23.23,2.45.5,3.67.82,1.3.34,2.58.73,3.84,1.17.62.22,1.24.44,1.85.68.31.12.62.24.93.37.16.06.31.13.47.19-.91-.37-.13-.06.06.03,2.7,1.17,5.3,2.54,7.81,4.07,1.29.78,2.54,1.61,3.78,2.47.64.44,1.27.9,1.9,1.36.32.24.63.47.95.71.13.1.68.53.03.02.21.17.42.33.63.5,5.82,4.61,11.05,9.92,15.84,15.58,1.38,1.63,2.72,3.28,4.04,4.97.04.06.58.75.18.23.16.21.32.42.49.63.33.43.65.86.97,1.29.71.95,1.41,1.91,2.11,2.88,2.85,3.97,5.55,8.05,8.12,12.2,13.12,21.16,23.3,44.1,32.21,67.3,2.73,7.11,5.33,14.27,7.84,21.46.53,1.53,2.05,2.55,3.69,2.1,1.49-.41,2.63-2.15,2.1-3.69-5.02-14.42-10.45-28.7-16.48-42.74-4.98-11.6-10.38-23.04-16.43-34.12-4.91-9-10.26-17.78-16.27-26.1-4.97-6.86-10.36-13.46-16.42-19.38-4.97-4.86-10.43-9.32-16.39-12.93-5-3.03-10.43-5.47-16.09-6.98-5.11-1.36-10.47-1.97-15.75-1.73s-10.38,1.25-15.32,2.91-9.98,4.06-14.58,6.84c-4.88,2.95-9.46,6.4-13.79,10.1s-8.64,7.94-12.61,12.26c-4.24,4.63-8.22,9.48-12.04,14.47s-7.33,9.97-10.74,15.13-6.64,10.36-9.75,15.67-5.82,10.19-8.57,15.37c-2.54,4.78-4.99,9.61-7.36,14.48-2.09,4.29-4.12,8.62-6.08,12.97-1.6,3.53-3.15,7.09-4.66,10.66-1.18,2.79-2.34,5.58-3.46,8.4-.56,1.39-1.11,2.79-1.64,4.2-.07.18-.13.35-.2.53-.56,1.52.63,3.29,2.1,3.69,1.68.46,3.13-.57,3.69-2.1h0Z"/>
    </g>
    <g>
      <path class="cls-2" d="m496.07,148.06c-9.02,25.73-19.25,51.2-32.42,75.12-4.85,8.81-10.13,17.41-16.04,25.56-.64.89-1.3,1.77-1.96,2.64-.32.43-.65.86-.98,1.28.4-.52-.14.18-.18.23-.22.28-.43.55-.65.83-1.32,1.67-2.67,3.32-4.06,4.93-2.51,2.92-5.14,5.75-7.91,8.43-2.5,2.42-5.13,4.69-7.85,6.86-.55.44.53-.4-.03.02-.16.12-.32.24-.48.36-.32.24-.64.48-.96.71-.68.5-1.37.99-2.07,1.46-1.24.85-2.51,1.67-3.8,2.44s-2.6,1.5-3.94,2.18c-.62.32-1.25.62-1.88.92-.31.15-.62.29-.94.43-.24.11-1.49.63-.53.24-2.48,1.02-5,1.9-7.6,2.57-1.27.32-2.55.6-3.84.83-.56.1-1.12.18-1.68.26-.59.09.78-.09.19-.03-.15.02-.3.04-.46.06-.35.04-.71.08-1.06.11-2.5.24-5.02.28-7.53.13-1.17-.07-2.43-.08-3.57-.34,1.09.25.04,0-.24-.04-.3-.04-.59-.09-.88-.14-.64-.11-1.28-.23-1.91-.36-2.41-.5-4.79-1.16-7.11-1.97-1.21-.42-2.39-.89-3.57-1.36-.55-.22.69.3.15.06-.14-.06-.28-.12-.43-.18-.28-.12-.57-.25-.85-.38-.57-.26-1.13-.52-1.69-.79-2.38-1.15-4.69-2.43-6.94-3.82s-4.49-2.91-6.63-4.5c-.54-.4-1.07-.8-1.6-1.21.8.61-.14-.11-.32-.25-.31-.24-.62-.49-.92-.74-1.06-.85-2.11-1.73-3.14-2.62-4.4-3.8-8.53-7.9-12.44-12.19-2-2.19-3.95-4.43-5.85-6.72-.98-1.18-1.94-2.37-2.9-3.57-.46-.58-.92-1.16-1.37-1.74-.11-.15-.23-.29-.34-.44-.41-.52.42.55.02.02-.24-.32-.49-.64-.73-.96-7.37-9.67-14.03-19.88-20.19-30.36-5.62-9.56-10.82-19.36-15.69-29.32-3.72-7.62-7.25-15.33-10.57-23.13-.14-.33-.61-1.68-.2-.47-.13-.38-.32-.76-.48-1.13-.27-.65-.54-1.3-.81-1.95-.47-1.15-.94-2.29-1.4-3.44-.54-1.34-1.07-2.69-1.59-4.05-.07-.17-.13-.35-.2-.52-.56-1.52-2.03-2.55-3.69-2.1-1.46.4-2.66,2.16-2.1,3.69,1.04,2.8,2.17,5.56,3.31,8.32,3.03,7.34,6.25,14.6,9.64,21.78,4.59,9.72,9.49,19.3,14.75,28.67,5.95,10.59,12.36,20.94,19.43,30.82,7.13,9.97,14.91,19.56,23.75,28.08,8.01,7.72,17,14.75,27.13,19.46,9.48,4.41,19.96,6.8,30.43,5.64,12.19-1.35,23.15-6.87,32.72-14.38,13.33-10.46,23.78-24.42,32.7-38.69,13.4-21.44,23.74-44.75,32.85-68.28,2.75-7.1,5.36-14.25,7.88-21.43.54-1.53-.61-3.28-2.1-3.69-1.65-.45-3.15.56-3.69,2.1h0Z"/>
      <path class="cls-2" d="m44.21,149.65c1.02-2.76,2.13-5.49,3.24-8.21.28-.68.56-1.37.85-2.05.15-.35.29-.7.44-1.05.06-.15.13-.3.19-.45.35-.84-.22.52,0-.02.71-1.68,1.43-3.35,2.16-5.02,1.72-3.94,3.49-7.86,5.32-11.76,4.54-9.7,9.39-19.26,14.59-28.62,5.86-10.54,12.17-20.85,19.13-30.71,1.75-2.48,3.53-4.92,5.36-7.34.22-.29.45-.59.67-.88.11-.15.23-.29.34-.44.4-.53-.43.55-.02.02.49-.63.98-1.26,1.48-1.88.95-1.2,1.91-2.39,2.89-3.56,3.78-4.56,7.75-8.96,11.97-13.12,2.06-2.03,4.17-3.99,6.36-5.88,1.07-.92,2.15-1.83,3.25-2.72.48-.39.96-.76,1.45-1.14s-.57.43-.08.06c.13-.1.26-.2.4-.3.31-.23.62-.47.93-.7,4.29-3.18,8.83-6.04,13.64-8.36.51-.25,1.03-.49,1.54-.72.28-.13.56-.25.84-.37.14-.06.28-.12.42-.18.48-.21-.75.3-.01,0,1.18-.48,2.36-.93,3.55-1.35,2.36-.81,4.77-1.48,7.22-1.97.58-.12,1.17-.23,1.75-.32.29-.05.59-.09.88-.14.15-.02.29-.04.44-.06.56-.09-.83.1-.14.02,1.21-.14,2.41-.26,3.62-.33,2.5-.13,5-.07,7.49.18.3.03.6.07.91.1.15.02.3.04.45.06-1-.11-.41-.06-.19-.02.66.1,1.32.2,1.97.32,1.23.23,2.45.5,3.67.82,1.3.34,2.58.73,3.84,1.17.62.22,1.24.44,1.85.68.31.12.62.24.93.37.16.06.31.13.47.19-.91-.37-.13-.06.06.03,2.7,1.17,5.3,2.54,7.81,4.07,1.29.78,2.54,1.61,3.78,2.47.64.44,1.27.9,1.9,1.36.32.24.63.47.95.71.13.1.68.53.03.02.21.17.42.33.63.5,5.82,4.61,11.05,9.92,15.84,15.58,1.38,1.63,2.72,3.28,4.04,4.97.04.06.58.75.18.23.16.21.32.42.49.63.33.43.65.86.97,1.29.71.95,1.41,1.91,2.11,2.88,2.85,3.97,5.55,8.05,8.12,12.2,13.12,21.16,23.3,44.1,32.21,67.3,2.73,7.11,5.33,14.27,7.84,21.46.53,1.53,2.05,2.55,3.69,2.1,1.49-.41,2.63-2.15,2.1-3.69-5.02-14.42-10.45-28.7-16.48-42.74-4.98-11.6-10.38-23.04-16.43-34.12-4.91-9-10.26-17.78-16.27-26.1-4.97-6.86-10.36-13.46-16.42-19.38-4.97-4.86-10.43-9.32-16.39-12.93-5-3.03-10.43-5.47-16.09-6.98-5.11-1.36-10.47-1.97-15.75-1.73s-10.38,1.25-15.32,2.91-9.98,4.06-14.58,6.84c-4.88,2.95-9.46,6.4-13.79,10.1s-8.64,7.94-12.61,12.26c-4.24,4.63-8.22,9.48-12.04,14.47s-7.33,9.97-10.74,15.13-6.64,10.36-9.75,15.67c-2.97,5.06-5.82,10.19-8.57,15.37-2.54,4.78-4.99,9.61-7.36,14.48-2.09,4.29-4.12,8.62-6.08,12.97-1.6,3.53-3.15,7.09-4.66,10.66-1.18,2.79-2.34,5.58-3.46,8.4-.56,1.39-1.11,2.79-1.64,4.2-.07.18-.13.35-.2.53-.56,1.52.63,3.29,2.1,3.69,1.68.46,3.13-.57,3.69-2.1h0Z"/>
    </g>
    <g>
      <path class="cls-2" d="m531.79,148.29c-9.02,25.73-19.25,51.2-32.42,75.12-4.85,8.81-10.13,17.41-16.04,25.56-.64.89-1.3,1.77-1.96,2.64-.32.43-.65.86-.98,1.28.4-.52-.14.18-.18.23-.22.28-.43.55-.65.83-1.32,1.67-2.67,3.32-4.06,4.93-2.51,2.92-5.14,5.75-7.91,8.43-2.5,2.42-5.13,4.69-7.85,6.86-.55.44.53-.4-.03.02-.16.12-.32.24-.48.36-.32.24-.64.48-.96.71-.68.5-1.37.99-2.07,1.46-1.24.85-2.51,1.67-3.8,2.44s-2.6,1.5-3.94,2.18c-.62.32-1.25.62-1.88.92-.31.15-.62.29-.94.43-.24.11-1.49.63-.53.24-2.48,1.02-5,1.9-7.6,2.57-1.27.32-2.55.6-3.84.83-.56.1-1.12.18-1.68.26-.59.09.78-.09.19-.03-.15.02-.3.04-.46.06-.35.04-.71.08-1.06.11-2.5.24-5.02.28-7.53.13-1.17-.07-2.43-.08-3.57-.34,1.09.25.04,0-.24-.04-.3-.04-.59-.09-.88-.14-.64-.11-1.28-.23-1.91-.36-2.41-.5-4.79-1.16-7.11-1.97-1.21-.42-2.39-.89-3.57-1.36-.55-.22.69.3.15.06-.14-.06-.28-.12-.43-.18-.28-.12-.57-.25-.85-.38-.57-.26-1.13-.52-1.69-.79-2.38-1.15-4.69-2.43-6.94-3.82s-4.49-2.91-6.63-4.5c-.54-.4-1.07-.8-1.6-1.21.8.61-.14-.11-.32-.25-.31-.24-.62-.49-.92-.74-1.06-.85-2.11-1.73-3.14-2.62-4.4-3.8-8.53-7.9-12.44-12.19-2-2.19-3.95-4.43-5.85-6.72-.98-1.18-1.94-2.37-2.9-3.57-.46-.58-.92-1.16-1.37-1.74-.11-.15-.23-.29-.34-.44-.41-.52.42.55.02.02-.24-.32-.49-.64-.73-.96-7.37-9.67-14.03-19.88-20.19-30.36-5.62-9.56-10.82-19.36-15.69-29.32-3.72-7.62-7.25-15.33-10.57-23.13-.14-.33-.61-1.68-.2-.47-.13-.38-.32-.76-.48-1.13-.27-.65-.54-1.3-.81-1.95-.47-1.15-.94-2.29-1.4-3.44-.54-1.34-1.07-2.69-1.59-4.05-.07-.17-.13-.35-.2-.52-.56-1.52-2.03-2.55-3.69-2.1-1.46.4-2.66,2.16-2.1,3.69,1.04,2.8,2.17,5.56,3.31,8.32,3.03,7.34,6.25,14.6,9.64,21.78,4.59,9.72,9.49,19.3,14.75,28.67,5.95,10.59,12.36,20.94,19.43,30.82,7.13,9.97,14.91,19.56,23.75,28.08,8.01,7.72,17,14.75,27.13,19.46,9.48,4.41,19.96,6.8,30.43,5.64,12.19-1.35,23.15-6.87,32.72-14.38,13.33-10.46,23.78-24.42,32.7-38.69,13.4-21.44,23.74-44.75,32.85-68.28,2.75-7.1,5.36-14.25,7.88-21.43.54-1.53-.61-3.28-2.1-3.69-1.65-.45-3.15.56-3.69,2.1h0Z"/>
      <path class="cls-2" d="m79.93,149.89c1.02-2.76,2.13-5.49,3.24-8.21.28-.68.56-1.37.85-2.05.15-.35.29-.7.44-1.05.06-.15.13-.3.19-.45.35-.84-.22.52,0-.02.71-1.68,1.43-3.35,2.16-5.02,1.72-3.94,3.49-7.86,5.32-11.76,4.54-9.7,9.39-19.26,14.59-28.62,5.86-10.54,12.17-20.85,19.13-30.71,1.75-2.48,3.53-4.92,5.36-7.34.22-.29.45-.59.67-.88.11-.15.23-.29.34-.44.4-.53-.43.55-.02.02.49-.63.98-1.26,1.48-1.88.95-1.2,1.91-2.39,2.89-3.56,3.78-4.56,7.75-8.96,11.97-13.12,2.06-2.03,4.17-3.99,6.36-5.88,1.07-.92,2.15-1.83,3.25-2.72.48-.39.96-.76,1.45-1.14s-.57.43-.08.06c.13-.1.26-.2.4-.3.31-.23.62-.47.93-.7,4.29-3.18,8.83-6.04,13.64-8.36.51-.25,1.03-.49,1.54-.72.28-.13.56-.25.84-.37.14-.06.28-.12.42-.18.48-.21-.75.3-.01,0,1.18-.48,2.36-.93,3.55-1.35,2.36-.81,4.77-1.48,7.22-1.97.58-.12,1.17-.23,1.75-.32.29-.05.59-.09.88-.14.15-.02.29-.04.44-.06.56-.09-.83.1-.14.02,1.21-.14,2.41-.26,3.62-.33,2.5-.13,5-.07,7.49.18.3.03.6.07.91.1.15.02.3.04.45.06-1-.11-.41-.06-.19-.02.66.1,1.32.2,1.97.32,1.23.23,2.45.5,3.67.82,1.3.34,2.58.73,3.84,1.17.62.22,1.24.44,1.85.68.31.12.62.24.93.37.16.06.31.13.47.19-.91-.37-.13-.06.06.03,2.7,1.17,5.3,2.54,7.81,4.07,1.29.78,2.54,1.61,3.78,2.47.64.44,1.27.9,1.9,1.36.32.24.63.47.95.71.13.1.68.53.03.02.21.17.42.33.63.5,5.82,4.61,11.05,9.92,15.84,15.58,1.38,1.63,2.72,3.28,4.04,4.97.04.06.58.75.18.23.16.21.32.42.49.63.33.43.65.86.97,1.29.71.95,1.41,1.91,2.11,2.88,2.85,3.97,5.55,8.05,8.12,12.2,13.12,21.16,23.3,44.1,32.21,67.3,2.73,7.11,5.33,14.27,7.84,21.46.53,1.53,2.05,2.55,3.69,2.1,1.49-.41,2.63-2.15,2.1-3.69-5.02-14.42-10.45-28.7-16.48-42.74-4.98-11.6-10.38-23.04-16.43-34.12-4.91-9-10.26-17.78-16.27-26.1-4.97-6.86-10.36-13.46-16.42-19.38-4.97-4.86-10.43-9.32-16.39-12.93-5-3.03-10.43-5.47-16.09-6.98-5.11-1.36-10.47-1.97-15.75-1.73s-10.38,1.25-15.32,2.91c-5.09,1.72-9.98,4.06-14.58,6.84-4.88,2.95-9.46,6.4-13.79,10.1-4.46,3.81-8.64,7.94-12.61,12.26-4.24,4.63-8.22,9.48-12.04,14.47s-7.33,9.97-10.74,15.13-6.64,10.36-9.75,15.67-5.82,10.19-8.57,15.37c-2.54,4.78-4.99,9.61-7.36,14.48-2.09,4.29-4.12,8.62-6.08,12.97-1.6,3.53-3.15,7.09-4.66,10.66-1.18,2.79-2.34,5.58-3.46,8.4-.56,1.39-1.11,2.79-1.64,4.2-.07.18-.13.35-.2.53-.56,1.52.63,3.29,2.1,3.69,1.68.46,3.13-.57,3.69-2.1h0Z"/>
    </g>
    <g>
      <path class="cls-2" d="m567.52,148.53c-9.02,25.73-19.25,51.2-32.42,75.12-4.85,8.81-10.13,17.41-16.04,25.56-.64.89-1.3,1.77-1.96,2.64-.32.43-.65.86-.98,1.28.4-.52-.14.18-.18.23-.22.28-.43.55-.65.83-1.32,1.67-2.67,3.32-4.06,4.93-2.51,2.92-5.14,5.75-7.91,8.43-2.5,2.42-5.13,4.69-7.85,6.86-.55.44.53-.4-.03.02-.16.12-.32.24-.48.36-.32.24-.64.48-.96.71-.68.5-1.37.99-2.07,1.46-1.24.85-2.51,1.67-3.8,2.44s-2.6,1.5-3.94,2.18c-.62.32-1.25.62-1.88.92-.31.15-.62.29-.94.43-.24.11-1.49.63-.53.24-2.48,1.02-5,1.9-7.6,2.57-1.27.32-2.55.6-3.84.83-.56.1-1.12.18-1.68.26-.59.09.78-.09.19-.03-.15.02-.3.04-.46.06-.35.04-.71.08-1.06.11-2.5.24-5.02.28-7.53.13-1.17-.07-2.43-.08-3.57-.34,1.09.25.04,0-.24-.04-.3-.04-.59-.09-.88-.14-.64-.11-1.28-.23-1.91-.36-2.41-.5-4.79-1.16-7.11-1.97-1.21-.42-2.39-.89-3.57-1.36-.55-.22.69.3.15.06-.14-.06-.28-.12-.43-.18-.28-.12-.57-.25-.85-.38-.57-.26-1.13-.52-1.69-.79-2.38-1.15-4.69-2.43-6.94-3.82s-4.49-2.91-6.63-4.5c-.54-.4-1.07-.8-1.6-1.21.8.61-.14-.11-.32-.25-.31-.24-.62-.49-.92-.74-1.06-.85-2.11-1.73-3.14-2.62-4.4-3.8-8.53-7.9-12.44-12.19-2-2.19-3.95-4.43-5.85-6.72-.98-1.18-1.94-2.37-2.9-3.57-.46-.58-.92-1.16-1.37-1.74-.11-.15-.23-.29-.34-.44-.41-.52.42.55.02.02-.24-.32-.49-.64-.73-.96-7.37-9.67-14.03-19.88-20.19-30.36-5.62-9.56-10.82-19.36-15.69-29.32-3.72-7.62-7.25-15.33-10.57-23.13-.14-.33-.61-1.68-.2-.47-.13-.38-.32-.76-.48-1.13-.27-.65-.54-1.3-.81-1.95-.47-1.15-.94-2.29-1.4-3.44-.54-1.34-1.07-2.69-1.59-4.05-.07-.17-.13-.35-.2-.52-.56-1.52-2.03-2.55-3.69-2.1-1.46.4-2.66,2.16-2.1,3.69,1.04,2.8,2.17,5.56,3.31,8.32,3.03,7.34,6.25,14.6,9.64,21.78,4.59,9.72,9.49,19.3,14.75,28.67,5.95,10.59,12.36,20.94,19.43,30.82,7.13,9.97,14.91,19.56,23.75,28.08,8.01,7.72,17,14.75,27.13,19.46,9.48,4.41,19.96,6.8,30.43,5.64,12.19-1.35,23.15-6.87,32.72-14.38,13.33-10.46,23.78-24.42,32.7-38.69,13.4-21.44,23.74-44.75,32.85-68.28,2.75-7.1,5.36-14.25,7.88-21.43.54-1.53-.61-3.28-2.1-3.69-1.65-.45-3.15.56-3.69,2.1h0Z"/>
      <path class="cls-2" d="m115.65,150.12c1.02-2.76,2.13-5.49,3.24-8.21.28-.68.56-1.37.85-2.05.15-.35.29-.7.44-1.05.06-.15.13-.3.19-.45.35-.84-.22.52,0-.02.71-1.68,1.43-3.35,2.16-5.02,1.72-3.94,3.49-7.86,5.32-11.76,4.54-9.7,9.39-19.26,14.59-28.62,5.86-10.54,12.17-20.85,19.13-30.71,1.75-2.48,3.53-4.92,5.36-7.34.22-.29.45-.59.67-.88.11-.15.23-.29.34-.44.4-.53-.43.55-.02.02.49-.63.98-1.26,1.48-1.88.95-1.2,1.91-2.39,2.89-3.56,3.78-4.56,7.75-8.96,11.97-13.12,2.06-2.03,4.17-3.99,6.36-5.88,1.07-.92,2.15-1.83,3.25-2.72.48-.39.96-.76,1.45-1.14s-.57.43-.08.06c.13-.1.26-.2.4-.3.31-.23.62-.47.93-.7,4.29-3.18,8.83-6.04,13.64-8.36.51-.25,1.03-.49,1.54-.72.28-.13.56-.25.84-.37.14-.06.28-.12.42-.18.48-.21-.75.3-.01,0,1.18-.48,2.36-.93,3.55-1.35,2.36-.81,4.77-1.48,7.22-1.97.58-.12,1.17-.23,1.75-.32.29-.05.59-.09.88-.14.15-.02.29-.04.44-.06.56-.09-.83.1-.14.02,1.21-.14,2.41-.26,3.62-.33,2.5-.13,5-.07,7.49.18.3.03.6.07.91.1.15.02.3.04.45.06-1-.11-.41-.06-.19-.02.66.1,1.32.2,1.97.32,1.23.23,2.45.5,3.67.82,1.3.34,2.58.73,3.84,1.17.62.22,1.24.44,1.85.68.31.12.62.24.93.37.16.06.31.13.47.19-.91-.37-.13-.06.06.03,2.7,1.17,5.3,2.54,7.81,4.07,1.29.78,2.54,1.61,3.78,2.47.64.44,1.27.9,1.9,1.36.32.24.63.47.95.71.13.1.68.53.03.02.21.17.42.33.63.5,5.82,4.61,11.05,9.92,15.84,15.58,1.38,1.63,2.72,3.28,4.04,4.97.04.06.58.75.18.23.16.21.32.42.49.63.33.43.65.86.97,1.29.71.95,1.41,1.91,2.11,2.88,2.85,3.97,5.55,8.05,8.12,12.2,13.12,21.16,23.3,44.1,32.21,67.3,2.73,7.11,5.33,14.27,7.84,21.46.53,1.53,2.05,2.55,3.69,2.1,1.49-.41,2.63-2.15,2.1-3.69-5.02-14.42-10.45-28.7-16.48-42.74-4.98-11.6-10.38-23.04-16.43-34.12-4.91-9-10.26-17.78-16.27-26.1-4.97-6.86-10.36-13.46-16.42-19.38-4.97-4.86-10.43-9.32-16.39-12.93-5-3.03-10.43-5.47-16.09-6.98-5.11-1.36-10.47-1.97-15.75-1.73s-10.38,1.25-15.32,2.91-9.98,4.06-14.58,6.84c-4.88,2.95-9.46,6.4-13.79,10.1s-8.64,7.94-12.61,12.26c-4.24,4.63-8.22,9.48-12.04,14.47s-7.33,9.97-10.74,15.13-6.64,10.36-9.75,15.67-5.82,10.19-8.57,15.37c-2.54,4.78-4.99,9.61-7.36,14.48-2.09,4.29-4.12,8.62-6.08,12.97-1.6,3.53-3.15,7.09-4.66,10.66-1.18,2.79-2.34,5.58-3.46,8.4-.56,1.39-1.11,2.79-1.64,4.2-.07.18-.13.35-.2.53-.56,1.52.63,3.29,2.1,3.69,1.68.46,3.13-.57,3.69-2.1h0Z"/>
    </g>
  </g>
  <g>
    <g>
      <path class="cls-1" d="m109.87,149.42c9.19,26.21,19.61,52.19,33.02,76.55,8.94,16.23,19.34,32.17,32.72,45.11,9.13,8.83,20,16.4,32.42,19.67,10.22,2.68,21.02,2.15,31.02-1.21,10.54-3.54,19.96-9.7,28.39-16.86,9.21-7.83,17.24-16.95,24.6-26.51,7.48-9.71,14.22-19.98,20.46-30.54,5.72-9.67,11-19.59,15.95-29.68,3.8-7.75,7.4-15.6,10.77-23.54,1.76-4.13,3.48-8.28,5.08-12.47.07-.17.13-.35.2-.52.56-1.52-.63-3.29-2.1-3.69-1.68-.46-3.12.57-3.69,2.1-1.02,2.74-2.13,5.46-3.25,8.16-.27.66-.54,1.31-.82,1.96-.07.17-.15.35-.22.52-.13.32-.22.95.04-.1-.1.4-.34.81-.5,1.19-.7,1.64-1.41,3.28-2.13,4.92-1.73,3.94-3.52,7.86-5.35,11.75-4.52,9.6-9.35,19.05-14.53,28.31-5.86,10.48-12.18,20.73-19.13,30.53-1.76,2.47-3.55,4.92-5.39,7.33-.22.29-.45.59-.68.88.58-.75-.19.24-.32.42-.49.63-.99,1.26-1.49,1.88-.96,1.2-1.92,2.38-2.9,3.56-3.76,4.51-7.72,8.87-11.92,12.98-2.07,2.02-4.2,3.99-6.4,5.87-1.03.89-2.08,1.76-3.14,2.61-.26.21-.53.42-.79.63-.13.1-.27.21-.4.31-.49.39.57-.44.08-.06-.58.44-1.15.87-1.73,1.3-4.25,3.13-8.76,5.94-13.52,8.23-.54.26-1.08.51-1.62.75-.28.13-.57.25-.85.37-.14.06-.28.12-.43.18.93-.4.21-.09,0,0-1.18.48-2.37.93-3.58,1.34-2.33.79-4.71,1.45-7.12,1.93-.59.12-1.17.23-1.76.32-.29.05-.59.1-.89.14-.15.02-.3.04-.44.06-.53.08.85-.1.06,0-1.19.14-2.38.25-3.57.32-2.51.13-5.03.07-7.53-.18-.3-.03-.61-.07-.91-.1-.15-.02-.3-.04-.46-.06.94.11.49.07.26.03-.64-.1-1.27-.19-1.91-.31-1.29-.23-2.57-.52-3.84-.85s-2.59-.74-3.87-1.18c-.57-.2-1.14-.41-1.71-.62-.31-.12-.62-.24-.93-.37-.16-.06-.31-.13-.47-.19-.77-.31.42.19-.06-.03-2.7-1.21-5.33-2.53-7.86-4.07-1.29-.78-2.56-1.61-3.8-2.47-.64-.44-1.28-.9-1.91-1.36-.32-.24-.64-.47-.96-.71-.16-.12-.32-.24-.48-.37.69.53-.06-.05-.19-.15-5.78-4.56-11-9.82-15.77-15.42-1.39-1.63-2.74-3.28-4.06-4.96-.16-.21-.33-.42-.49-.63-.54-.69.35.47-.18-.24-.33-.43-.65-.86-.98-1.29-.72-.95-1.42-1.91-2.12-2.87-2.81-3.89-5.47-7.88-8.01-11.95-13.13-21-23.32-43.79-32.24-66.85-2.75-7.1-5.36-14.25-7.88-21.43-.54-1.53-2.05-2.55-3.69-2.1-1.48.41-2.63,2.15-2.1,3.69h0Z"/>
      <path class="cls-1" d="m573.3,147.82c-.27-.73-.55-1.46-.83-2.18-.8-2.05-1.62-4.1-2.46-6.14-1.37-3.34-2.78-6.66-4.22-9.97-1.74-3.99-3.54-7.96-5.39-11.9-2.18-4.66-4.44-9.28-6.77-13.87-2.57-5.06-5.23-10.07-7.99-15.02-2.93-5.26-5.98-10.45-9.16-15.57s-6.7-10.45-10.3-15.51-7.53-10.22-11.59-15.09c-3.83-4.58-7.85-9-12.14-13.16s-8.73-7.95-13.49-11.43c-4.3-3.14-8.86-5.94-13.68-8.2s-9.73-4-14.89-4.98-10.39-1.28-15.59-.69c-5.76.65-11.23,2.2-16.54,4.51-5.84,2.54-11.17,6.03-16.16,9.97-5.91,4.67-11.22,10.08-16.08,15.83-6.09,7.21-11.53,14.95-16.51,22.95-6.02,9.69-11.39,19.77-16.32,30.05-6.09,12.66-11.54,25.63-16.58,38.74-2.76,7.18-5.39,14.41-7.92,21.67-.53,1.53.61,3.28,2.1,3.69,1.65.45,3.16-.56,3.69-2.1,9.01-25.88,19.22-51.5,32.39-75.58,4.87-8.91,10.16-17.6,16.11-25.83.64-.89,1.29-1.77,1.94-2.64.32-.43.65-.86.97-1.28.04-.06.58-.75.18-.23.21-.28.43-.55.65-.83,1.31-1.67,2.65-3.32,4.03-4.93,2.5-2.93,5.11-5.75,7.87-8.44,2.53-2.47,5.19-4.81,7.97-7.01.13-.1.69-.53.03-.02.16-.12.32-.24.48-.36.31-.24.63-.48.95-.71.68-.5,1.36-.99,2.05-1.46,1.23-.85,2.49-1.66,3.78-2.44,2.51-1.51,5.12-2.84,7.81-4.01.57-.25-.68.27-.1.04.16-.06.31-.13.47-.19.31-.12.62-.25.93-.37.66-.25,1.33-.5,2.01-.72,1.27-.43,2.55-.81,3.84-1.14,1.21-.31,2.43-.58,3.66-.8.61-.11,1.21-.19,1.82-.29s-.78.09-.19.03c.15-.02.3-.04.45-.06.35-.04.7-.08,1.06-.11,2.49-.24,4.99-.28,7.48-.13,1.15.07,2.42.07,3.55.34-1.08-.26-.05,0,.23.04s.59.09.88.14c.64.11,1.27.23,1.9.36,2.45.51,4.86,1.19,7.22,2.01,1.2.42,2.38.89,3.55,1.37-1-.41.04.02.27.12.28.12.56.25.84.38.56.26,1.12.52,1.68.79,2.37,1.15,4.67,2.44,6.9,3.82s4.55,2.97,6.73,4.6c.27.2.53.4.8.6.13.1.26.2.4.3-.73-.55-.23-.18-.08-.06.53.41,1.05.83,1.58,1.25,1.1.89,2.18,1.8,3.25,2.73,4.37,3.8,8.48,7.91,12.37,12.2,2.03,2.24,4.01,4.53,5.93,6.86.97,1.18,1.93,2.37,2.88,3.57.46.58.91,1.16,1.36,1.74-.59-.75.18.24.32.42.26.34.52.69.78,1.03,7.35,9.71,13.98,19.95,20.12,30.46,5.62,9.62,10.82,19.48,15.69,29.49,3.74,7.71,7.21,15.52,10.61,23.38-.51-1.17.03.07.16.38.16.38.32.76.47,1.13.28.68.56,1.36.84,2.03.47,1.15.93,2.3,1.39,3.45.54,1.36,1.08,2.72,1.59,4.09.06.17.13.34.19.52.56,1.52,2.03,2.55,3.69,2.1,1.46-.4,2.66-2.16,2.1-3.69h0Z"/>
    </g>
    <g>
      <path class="cls-1" d="m74.14,149.65c9.19,26.21,19.61,52.19,33.02,76.55,8.94,16.23,19.34,32.17,32.72,45.11,9.13,8.83,20,16.4,32.42,19.67,10.22,2.68,21.02,2.15,31.02-1.21,10.54-3.54,19.96-9.7,28.39-16.86,9.21-7.83,17.24-16.95,24.6-26.51s14.22-19.98,20.46-30.54c5.72-9.67,11-19.59,15.95-29.68,3.8-7.75,7.4-15.6,10.77-23.54,1.76-4.13,3.48-8.28,5.08-12.47.07-.17.13-.35.2-.52.56-1.52-.63-3.29-2.1-3.69-1.68-.46-3.12.57-3.69,2.1-1.02,2.74-2.13,5.46-3.25,8.16-.27.66-.54,1.31-.82,1.96-.07.17-.15.35-.22.52-.13.32-.22.95.04-.1-.1.4-.34.81-.5,1.19-.7,1.64-1.41,3.28-2.13,4.92-1.73,3.94-3.52,7.86-5.35,11.75-4.52,9.6-9.35,19.05-14.53,28.31-5.86,10.48-12.18,20.73-19.13,30.53-1.76,2.47-3.55,4.92-5.39,7.33-.22.29-.45.59-.68.88.58-.75-.19.24-.32.42-.49.63-.99,1.26-1.49,1.88-.96,1.2-1.92,2.38-2.9,3.56-3.76,4.51-7.72,8.87-11.92,12.98-2.07,2.02-4.2,3.99-6.4,5.87-1.03.89-2.08,1.76-3.14,2.61-.26.21-.53.42-.79.63-.13.1-.27.21-.4.31-.49.39.57-.44.08-.06-.58.44-1.15.87-1.73,1.3-4.25,3.13-8.76,5.94-13.52,8.23-.54.26-1.08.51-1.62.75-.28.13-.57.25-.85.37-.14.06-.28.12-.43.18.93-.4.21-.09,0,0-1.18.48-2.37.93-3.58,1.34-2.33.79-4.71,1.45-7.12,1.93-.59.12-1.17.23-1.76.32-.29.05-.59.1-.89.14-.15.02-.3.04-.44.06-.53.08.85-.1.06,0-1.19.14-2.38.25-3.57.32-2.51.13-5.03.07-7.53-.18-.3-.03-.61-.07-.91-.1-.15-.02-.3-.04-.46-.06.94.11.49.07.26.03-.64-.1-1.27-.19-1.91-.31-1.29-.23-2.57-.52-3.84-.85s-2.59-.74-3.87-1.18c-.57-.2-1.14-.41-1.71-.62-.31-.12-.62-.24-.93-.37-.16-.06-.31-.13-.47-.19-.77-.31.42.19-.06-.03-2.7-1.21-5.33-2.53-7.86-4.07-1.29-.78-2.56-1.61-3.8-2.47-.64-.44-1.28-.9-1.91-1.36-.32-.24-.64-.47-.96-.71-.16-.12-.32-.24-.48-.37.69.53-.06-.05-.19-.15-5.78-4.56-11-9.82-15.77-15.42-1.39-1.63-2.74-3.28-4.06-4.96-.16-.21-.33-.42-.49-.63-.54-.69.35.47-.18-.24-.33-.43-.65-.86-.98-1.29-.72-.95-1.42-1.91-2.12-2.87-2.81-3.89-5.47-7.88-8.01-11.95-13.13-21-23.32-43.79-32.24-66.85-2.75-7.1-5.36-14.25-7.88-21.43-.54-1.53-2.05-2.55-3.69-2.1-1.48.41-2.63,2.15-2.1,3.69h0Z"/>
      <path class="cls-1" d="m537.58,148.06c-.27-.73-.55-1.46-.83-2.18-.8-2.05-1.62-4.1-2.46-6.14-1.37-3.34-2.78-6.66-4.22-9.97-1.74-3.99-3.54-7.96-5.39-11.9-2.18-4.66-4.44-9.28-6.77-13.87-2.57-5.06-5.23-10.07-7.99-15.02-2.93-5.26-5.98-10.45-9.16-15.57s-6.7-10.45-10.3-15.51-7.53-10.22-11.59-15.09c-3.83-4.58-7.85-9-12.14-13.16-4.23-4.11-8.73-7.95-13.49-11.43-4.3-3.14-8.86-5.94-13.68-8.2s-9.73-4-14.89-4.98-10.39-1.28-15.59-.69c-5.76.65-11.23,2.2-16.54,4.51-5.84,2.54-11.17,6.03-16.16,9.97-5.91,4.67-11.22,10.08-16.08,15.83-6.09,7.21-11.53,14.95-16.51,22.95-6.02,9.69-11.39,19.77-16.32,30.05-6.09,12.66-11.54,25.63-16.58,38.74-2.76,7.18-5.39,14.41-7.92,21.67-.53,1.53.61,3.28,2.1,3.69,1.65.45,3.16-.56,3.69-2.1,9.01-25.88,19.22-51.5,32.39-75.58,4.87-8.91,10.16-17.6,16.11-25.83.64-.89,1.29-1.77,1.94-2.64.32-.43.65-.86.97-1.28.04-.06.58-.75.18-.23.21-.28.43-.55.65-.83,1.31-1.67,2.65-3.32,4.03-4.93,2.5-2.93,5.11-5.75,7.87-8.44,2.53-2.47,5.19-4.81,7.97-7.01.13-.1.69-.53.03-.02.16-.12.32-.24.48-.36.31-.24.63-.48.95-.71.68-.5,1.36-.99,2.05-1.46,1.23-.85,2.49-1.66,3.78-2.44,2.51-1.51,5.12-2.84,7.81-4.01.57-.25-.68.27-.1.04.16-.06.31-.13.47-.19.31-.12.62-.25.93-.37.66-.25,1.33-.5,2.01-.72,1.27-.43,2.55-.81,3.84-1.14,1.21-.31,2.43-.58,3.66-.8.61-.11,1.21-.19,1.82-.29s-.78.09-.19.03c.15-.02.3-.04.45-.06.35-.04.7-.08,1.06-.11,2.49-.24,4.99-.28,7.48-.13,1.15.07,2.42.07,3.55.34-1.08-.26-.05,0,.23.04s.59.09.88.14c.64.11,1.27.23,1.9.36,2.45.51,4.86,1.19,7.22,2.01,1.2.42,2.38.89,3.55,1.37-1-.41.04.02.27.12.28.12.56.25.84.38.56.26,1.12.52,1.68.79,2.37,1.15,4.67,2.44,6.9,3.82s4.55,2.97,6.73,4.6c.27.2.53.4.8.6.13.1.26.2.4.3-.73-.55-.23-.18-.08-.06.53.41,1.05.83,1.58,1.25,1.1.89,2.18,1.8,3.25,2.73,4.37,3.8,8.48,7.91,12.37,12.2,2.03,2.24,4.01,4.53,5.93,6.86.97,1.18,1.93,2.37,2.88,3.57.46.58.91,1.16,1.36,1.74-.59-.75.18.24.32.42.26.34.52.69.78,1.03,7.35,9.71,13.98,19.95,20.12,30.46,5.62,9.62,10.82,19.48,15.69,29.49,3.74,7.71,7.21,15.52,10.61,23.38-.51-1.17.03.07.16.38.16.38.32.76.47,1.13.28.68.56,1.36.84,2.03.47,1.15.93,2.3,1.39,3.45.54,1.36,1.08,2.72,1.59,4.09.06.17.13.34.19.52.56,1.52,2.03,2.55,3.69,2.1,1.46-.4,2.66-2.16,2.1-3.69h0Z"/>
    </g>
    <g>
      <path class="cls-1" d="m38.42,149.89c9.19,26.21,19.61,52.19,33.02,76.55,8.94,16.23,19.34,32.17,32.72,45.11,9.13,8.83,20,16.4,32.42,19.67,10.22,2.68,21.02,2.15,31.02-1.21,10.54-3.54,19.96-9.7,28.39-16.86,9.21-7.83,17.24-16.95,24.6-26.51,7.48-9.71,14.22-19.98,20.46-30.54,5.72-9.67,11-19.59,15.95-29.68,3.8-7.75,7.4-15.6,10.77-23.54,1.76-4.13,3.48-8.28,5.08-12.47.07-.17.13-.35.2-.52.56-1.52-.63-3.29-2.1-3.69-1.68-.46-3.12.57-3.69,2.1-1.02,2.74-2.13,5.46-3.25,8.16-.27.66-.54,1.31-.82,1.96-.07.17-.15.35-.22.52-.13.32-.22.95.04-.1-.1.4-.34.81-.5,1.19-.7,1.64-1.41,3.28-2.13,4.92-1.73,3.94-3.52,7.86-5.35,11.75-4.52,9.6-9.35,19.05-14.53,28.31-5.86,10.48-12.18,20.73-19.13,30.53-1.76,2.47-3.55,4.92-5.39,7.33-.22.29-.45.59-.68.88.58-.75-.19.24-.32.42-.49.63-.99,1.26-1.49,1.88-.96,1.2-1.92,2.38-2.9,3.56-3.76,4.51-7.72,8.87-11.92,12.98-2.07,2.02-4.2,3.99-6.4,5.87-1.03.89-2.08,1.76-3.14,2.61-.26.21-.53.42-.79.63-.13.1-.27.21-.4.31-.49.39.57-.44.08-.06-.58.44-1.15.87-1.73,1.3-4.25,3.13-8.76,5.94-13.52,8.23-.54.26-1.08.51-1.62.75-.28.13-.57.25-.85.37-.14.06-.28.12-.43.18.93-.4.21-.09,0,0-1.18.48-2.37.93-3.58,1.34-2.33.79-4.71,1.45-7.12,1.93-.59.12-1.17.23-1.76.32-.29.05-.59.1-.89.14-.15.02-.3.04-.44.06-.53.08.85-.1.06,0-1.19.14-2.38.25-3.57.32-2.51.13-5.03.07-7.53-.18-.3-.03-.61-.07-.91-.1-.15-.02-.3-.04-.46-.06.94.11.49.07.26.03-.64-.1-1.27-.19-1.91-.31-1.29-.23-2.57-.52-3.84-.85s-2.59-.74-3.87-1.18c-.57-.2-1.14-.41-1.71-.62-.31-.12-.62-.24-.93-.37-.16-.06-.31-.13-.47-.19-.77-.31.42.19-.06-.03-2.7-1.21-5.33-2.53-7.86-4.07-1.29-.78-2.56-1.61-3.8-2.47-.64-.44-1.28-.9-1.91-1.36-.32-.24-.64-.47-.96-.71-.16-.12-.32-.24-.48-.37.69.53-.06-.05-.19-.15-5.78-4.56-11-9.82-15.77-15.42-1.39-1.63-2.74-3.28-4.06-4.96-.16-.21-.33-.42-.49-.63-.54-.69.35.47-.18-.24-.33-.43-.65-.86-.98-1.29-.72-.95-1.42-1.91-2.12-2.87-2.81-3.89-5.47-7.88-8.01-11.95-13.13-21-23.32-43.79-32.24-66.85-2.75-7.1-5.36-14.25-7.88-21.43-.54-1.53-2.05-2.55-3.69-2.1-1.48.41-2.63,2.15-2.1,3.69h0Z"/>
      <path class="cls-1" d="m501.86,148.29c-.27-.73-.55-1.46-.83-2.18-.8-2.05-1.62-4.1-2.46-6.14-1.37-3.34-2.78-6.66-4.22-9.97-1.74-3.99-3.54-7.96-5.39-11.9-2.18-4.66-4.44-9.28-6.77-13.87-2.57-5.06-5.23-10.07-7.99-15.02-2.93-5.26-5.98-10.45-9.16-15.57s-6.7-10.45-10.3-15.51-7.53-10.22-11.59-15.09c-3.83-4.58-7.85-9-12.14-13.16s-8.73-7.95-13.49-11.43c-4.3-3.14-8.86-5.94-13.68-8.2s-9.73-4-14.89-4.98-10.39-1.28-15.59-.69c-5.76.65-11.23,2.2-16.54,4.51-5.84,2.54-11.17,6.03-16.16,9.97-5.91,4.67-11.22,10.08-16.08,15.83-6.09,7.21-11.53,14.95-16.51,22.95-6.02,9.69-11.39,19.77-16.32,30.05-6.09,12.66-11.54,25.63-16.58,38.74-2.76,7.18-5.39,14.41-7.92,21.67-.53,1.53.61,3.28,2.1,3.69,1.65.45,3.16-.56,3.69-2.1,9.01-25.88,19.22-51.5,32.39-75.58,4.87-8.91,10.16-17.6,16.11-25.83.64-.89,1.29-1.77,1.94-2.64.32-.43.65-.86.97-1.28.04-.06.58-.75.18-.23.21-.28.43-.55.65-.83,1.31-1.67,2.65-3.32,4.03-4.93,2.5-2.93,5.11-5.75,7.87-8.44,2.53-2.47,5.19-4.81,7.97-7.01.13-.1.69-.53.03-.02.16-.12.32-.24.48-.36.31-.24.63-.48.95-.71.68-.5,1.36-.99,2.05-1.46,1.23-.85,2.49-1.66,3.78-2.44,2.51-1.51,5.12-2.84,7.81-4.01.57-.25-.68.27-.1.04.16-.06.31-.13.47-.19.31-.12.62-.25.93-.37.66-.25,1.33-.5,2.01-.72,1.27-.43,2.55-.81,3.84-1.14,1.21-.31,2.43-.58,3.66-.8.61-.11,1.21-.19,1.82-.29s-.78.09-.19.03c.15-.02.3-.04.45-.06.35-.04.7-.08,1.06-.11,2.49-.24,4.99-.28,7.48-.13,1.15.07,2.42.07,3.55.34-1.08-.26-.05,0,.23.04s.59.09.88.14c.64.11,1.27.23,1.9.36,2.45.51,4.86,1.19,7.22,2.01,1.2.42,2.38.89,3.55,1.37-1-.41.04.02.27.12.28.12.56.25.84.38.56.26,1.12.52,1.68.79,2.37,1.15,4.67,2.44,6.9,3.82s4.55,2.97,6.73,4.6c.27.2.53.4.8.6.13.1.26.2.4.3-.73-.55-.23-.18-.08-.06.53.41,1.05.83,1.58,1.25,1.1.89,2.18,1.8,3.25,2.73,4.37,3.8,8.48,7.91,12.37,12.2,2.03,2.24,4.01,4.53,5.93,6.86.97,1.18,1.93,2.37,2.88,3.57.46.58.91,1.16,1.36,1.74-.59-.75.18.24.32.42.26.34.52.69.78,1.03,7.35,9.71,13.98,19.95,20.12,30.46,5.62,9.62,10.82,19.48,15.69,29.49,3.74,7.71,7.21,15.52,10.61,23.38-.51-1.17.03.07.16.38.16.38.32.76.47,1.13.28.68.56,1.36.84,2.03.47,1.15.93,2.3,1.39,3.45.54,1.36,1.08,2.72,1.59,4.09.06.17.13.34.19.52.56,1.52,2.03,2.55,3.69,2.1,1.46-.4,2.66-2.16,2.1-3.69h0Z"/>
    </g>
    <g>
      <path class="cls-1" d="m2.7,150.12c9.19,26.21,19.61,52.19,33.02,76.55,8.94,16.23,19.34,32.17,32.72,45.11,9.13,8.83,20,16.4,32.42,19.67,10.22,2.68,21.02,2.15,31.02-1.21,10.54-3.54,19.96-9.7,28.39-16.86,9.21-7.83,17.24-16.95,24.6-26.51,7.48-9.71,14.22-19.98,20.46-30.54,5.72-9.67,11-19.59,15.95-29.68,3.8-7.75,7.4-15.6,10.77-23.54,1.76-4.13,3.48-8.28,5.08-12.47.07-.17.13-.35.2-.52.56-1.52-.63-3.29-2.1-3.69-1.68-.46-3.12.57-3.69,2.1-1.02,2.74-2.13,5.46-3.25,8.16-.27.66-.54,1.31-.82,1.96-.07.17-.15.35-.22.52-.13.32-.22.95.04-.1-.1.4-.34.81-.5,1.19-.7,1.64-1.41,3.28-2.13,4.92-1.73,3.94-3.52,7.86-5.35,11.75-4.52,9.6-9.35,19.05-14.53,28.31-5.86,10.48-12.18,20.73-19.13,30.53-1.76,2.47-3.55,4.92-5.39,7.33-.22.29-.45.59-.68.88.58-.75-.19.24-.32.42-.49.63-.99,1.26-1.49,1.88-.96,1.2-1.92,2.38-2.9,3.56-3.76,4.51-7.72,8.87-11.92,12.98-2.07,2.02-4.2,3.99-6.4,5.87-1.03.89-2.08,1.76-3.14,2.61-.26.21-.53.42-.79.63-.13.1-.27.21-.4.31-.49.39.57-.44.08-.06-.58.44-1.15.87-1.73,1.3-4.25,3.13-8.76,5.94-13.52,8.23-.54.26-1.08.51-1.62.75-.28.13-.57.25-.85.37-.14.06-.28.12-.43.18.93-.4.21-.09,0,0-1.18.48-2.37.93-3.58,1.34-2.33.79-4.71,1.45-7.12,1.93-.59.12-1.17.23-1.76.32-.29.05-.59.1-.89.14-.15.02-.3.04-.44.06-.53.08.85-.1.06,0-1.19.14-2.38.25-3.57.32-2.51.13-5.03.07-7.53-.18-.3-.03-.61-.07-.91-.1-.15-.02-.3-.04-.46-.06.94.11.49.07.26.03-.64-.1-1.27-.19-1.91-.31-1.29-.23-2.57-.52-3.84-.85s-2.59-.74-3.87-1.18c-.57-.2-1.14-.41-1.71-.62-.31-.12-.62-.24-.93-.37-.16-.06-.31-.13-.47-.19-.77-.31.42.19-.06-.03-2.7-1.21-5.33-2.53-7.86-4.07-1.29-.78-2.56-1.61-3.8-2.47-.64-.44-1.28-.9-1.91-1.36-.32-.24-.64-.47-.96-.71-.16-.12-.32-.24-.48-.37.69.53-.06-.05-.19-.15-5.78-4.56-11-9.82-15.77-15.42-1.39-1.63-2.74-3.28-4.06-4.96-.16-.21-.33-.42-.49-.63-.54-.69.35.47-.18-.24-.33-.43-.65-.86-.98-1.29-.72-.95-1.42-1.91-2.12-2.87-2.81-3.89-5.47-7.88-8.01-11.95-13.13-21-23.32-43.79-32.24-66.85-2.75-7.1-5.36-14.25-7.88-21.43-.54-1.53-2.05-2.55-3.69-2.1-1.48.41-2.63,2.15-2.1,3.69h0Z"/>
      <path class="cls-1" d="m466.13,148.53c-.27-.73-.55-1.46-.83-2.18-.8-2.05-1.62-4.1-2.46-6.14-1.37-3.34-2.78-6.66-4.22-9.97-1.74-3.99-3.54-7.96-5.39-11.9-2.18-4.66-4.44-9.28-6.77-13.87-2.57-5.06-5.23-10.07-7.99-15.02-2.93-5.26-5.98-10.45-9.16-15.57s-6.7-10.45-10.3-15.51-7.53-10.22-11.59-15.09c-3.83-4.58-7.85-9-12.14-13.16s-8.73-7.95-13.49-11.43c-4.3-3.14-8.86-5.94-13.68-8.2s-9.73-4-14.89-4.98-10.39-1.28-15.59-.69c-5.76.65-11.23,2.2-16.54,4.51-5.84,2.54-11.17,6.03-16.16,9.97-5.91,4.67-11.22,10.08-16.08,15.83-6.09,7.21-11.53,14.95-16.51,22.95-6.02,9.69-11.39,19.77-16.32,30.05-6.09,12.66-11.54,25.63-16.58,38.74-2.76,7.18-5.39,14.41-7.92,21.67-.53,1.53.61,3.28,2.1,3.69,1.65.45,3.16-.56,3.69-2.1,9.01-25.88,19.22-51.5,32.39-75.58,4.87-8.91,10.16-17.6,16.11-25.83.64-.89,1.29-1.77,1.94-2.64.32-.43.65-.86.97-1.28.04-.06.58-.75.18-.23.21-.28.43-.55.65-.83,1.31-1.67,2.65-3.32,4.03-4.93,2.5-2.93,5.11-5.75,7.87-8.44,2.53-2.47,5.19-4.81,7.97-7.01.13-.1.69-.53.03-.02.16-.12.32-.24.48-.36.31-.24.63-.48.95-.71.68-.5,1.36-.99,2.05-1.46,1.23-.85,2.49-1.66,3.78-2.44,2.51-1.51,5.12-2.84,7.81-4.01.57-.25-.68.27-.1.04.16-.06.31-.13.47-.19.31-.12.62-.25.93-.37.66-.25,1.33-.5,2.01-.72,1.27-.43,2.55-.81,3.84-1.14,1.21-.31,2.43-.58,3.66-.8.61-.11,1.21-.19,1.82-.29s-.78.09-.19.03c.15-.02.3-.04.45-.06.35-.04.7-.08,1.06-.11,2.49-.24,4.99-.28,7.48-.13,1.15.07,2.42.07,3.55.34-1.08-.26-.05,0,.23.04s.59.09.88.14c.64.11,1.27.23,1.9.36,2.45.51,4.86,1.19,7.22,2.01,1.2.42,2.38.89,3.55,1.37-1-.41.04.02.27.12.28.12.56.25.84.38.56.26,1.12.52,1.68.79,2.37,1.15,4.67,2.44,6.9,3.82s4.55,2.97,6.73,4.6c.27.2.53.4.8.6.13.1.26.2.4.3-.73-.55-.23-.18-.08-.06.53.41,1.05.83,1.58,1.25,1.1.89,2.18,1.8,3.25,2.73,4.37,3.8,8.48,7.91,12.37,12.2,2.03,2.24,4.01,4.53,5.93,6.86.97,1.18,1.93,2.37,2.88,3.57.46.58.91,1.16,1.36,1.74-.59-.75.18.24.32.42.26.34.52.69.78,1.03,7.35,9.71,13.98,19.95,20.12,30.46,5.62,9.62,10.82,19.48,15.69,29.49,3.74,7.71,7.21,15.52,10.61,23.38-.51-1.17.03.07.16.38.16.38.32.76.47,1.13.28.68.56,1.36.84,2.03.47,1.15.93,2.3,1.39,3.45.54,1.36,1.08,2.72,1.59,4.09.06.17.13.34.19.52.56,1.52,2.03,2.55,3.69,2.1,1.46-.4,2.66-2.16,2.1-3.69h0Z"/>
    </g>
  </g>
  <g>
    <g>
      <path class="cls-2" d="m63.62,198.43c-.67,0-1.27-.26-1.67-.73-.37-.44-.52-1-.43-1.59l15.44-95.67c.19-1.21,1.36-2.16,2.66-2.16h67.95c1.64,0,3.13.64,4.08,1.76.89,1.04,1.25,2.39,1.02,3.81l-1.62,10.02c-.81,5.04-5.91,9.15-11.37,9.15h-34.37c-.79,0-1.55.6-1.67,1.32l-1.69,10.49c-.05.3.02.57.2.78.21.24.53.38.91.38h31.72c1.65,0,3.15.65,4.11,1.77.89,1.05,1.26,2.41,1.03,3.84l-1.34,8.29c-.82,5.05-5.92,9.16-11.38,9.16h-27.7c-.79,0-1.55.6-1.67,1.32l-1.96,12.17c-.05.3.02.57.2.78.21.24.53.38.91.38h39.78c1.64,0,3.13.64,4.08,1.76.89,1.04,1.25,2.4,1.02,3.81l-1.61,10c-.82,5.05-5.92,9.17-11.39,9.17H63.62Z"/>
      <path class="cls-3" d="m147.57,98.79c2.99,0,5.05,2.23,4.61,4.99l-1.62,10.02c-.78,4.82-5.65,8.73-10.87,8.73h-34.37c-1.04,0-2.01.78-2.16,1.74l-1.69,10.49c-.15.96.56,1.74,1.6,1.74h31.72c3.01,0,5.09,2.25,4.64,5.03l-1.34,8.29c-.78,4.83-5.66,8.74-10.89,8.74h-27.7c-1.04,0-2.01.78-2.16,1.74l-1.96,12.17c-.15.96.56,1.74,1.6,1.74h39.78c2.99,0,5.06,2.24,4.61,5l-1.61,10c-.78,4.83-5.66,8.75-10.89,8.75H63.62c-1.04,0-1.76-.78-1.6-1.74l15.44-95.67c.15-.96,1.12-1.74,2.16-1.74h67.95m0-1h-67.95c-1.53,0-2.92,1.13-3.15,2.58l-15.44,95.67c-.12.74.07,1.44.54,1.99.49.57,1.24.9,2.05.9h65.24c5.7,0,11.03-4.3,11.88-9.59l1.61-10c.25-1.56-.15-3.06-1.13-4.22-1.05-1.23-2.68-1.94-4.46-1.94h-39.78c-.23,0-.42-.07-.53-.2-.08-.1-.11-.23-.09-.38l1.96-12.17c.08-.48.63-.9,1.18-.9h27.7c5.7,0,11.03-4.3,11.88-9.59l1.34-8.29c.25-1.57-.15-3.08-1.14-4.24-1.05-1.24-2.69-1.95-4.49-1.95h-31.72c-.23,0-.42-.07-.53-.2-.08-.1-.11-.23-.09-.38l1.69-10.49c.08-.48.63-.9,1.18-.9h34.37c5.69,0,11.01-4.29,11.86-9.57l1.62-10.02c.25-1.56-.15-3.06-1.13-4.21-1.05-1.23-2.67-1.94-4.46-1.94h0Z"/>
    </g>
    <g>
      <path class="cls-2" d="m209.67,199.27c-8.01,0-15.21-1.5-21.38-4.45-6.18-2.95-11.36-6.92-15.4-11.79-4.04-4.87-6.92-10.48-8.57-16.67-1.64-6.18-1.96-12.55-.93-18.92.98-6.09,3.22-12.16,6.65-18.05,3.43-5.88,7.96-11.24,13.48-15.91,5.51-4.67,11.98-8.5,19.22-11.39,7.26-2.9,15.35-4.36,24.05-4.36,10.43,0,19.29,2.02,26.31,6,5.88,3.34,10.32,7.64,13.19,12.78,1.07,1.93.19,4.46-2.02,5.77l-13.4,7.95c-1.69,1-3.58,1.54-5.46,1.54-2.54,0-4.86-.99-6.38-2.72-1.4-1.57-3-2.8-4.81-3.7-1.82-.91-3.78-1.55-5.83-1.91-2.08-.37-4.13-.55-6.11-.55-4.15,0-7.9.76-11.14,2.26-3.25,1.5-6.07,3.49-8.39,5.9-2.32,2.42-4.22,5.19-5.65,8.24-1.44,3.06-2.41,6.14-2.9,9.15-.54,3.38-.52,6.66.06,9.74.58,3.08,1.73,5.83,3.41,8.18,1.67,2.35,3.92,4.24,6.68,5.64,2.76,1.4,6.05,2.11,9.8,2.11,1.98,0,4.07-.21,6.21-.62,2.13-.41,4.27-1.1,6.35-2.06,2.07-.95,4.02-2.2,5.79-3.7,2.14-1.82,4.82-2.85,7.4-2.85,1.65,0,3.21.42,4.51,1.2l12.29,7.43c.91.55,1.51,1.42,1.7,2.45.21,1.14-.13,2.37-.93,3.37-1.86,2.35-4.12,4.56-6.71,6.55-3.76,2.9-7.96,5.36-12.48,7.32-4.52,1.96-9.33,3.47-14.29,4.5-4.97,1.03-9.8,1.55-14.35,1.55Z"/>
      <path class="cls-3" d="m226.8,98.23c10.39,0,19.08,1.98,26.07,5.93,5.83,3.31,10.16,7.5,13,12.59.93,1.68.13,3.93-1.83,5.1l-13.4,7.95c-1.67.99-3.48,1.46-5.2,1.46-2.35,0-4.54-.88-6.01-2.55-.01-.02-.03-.03-.04-.05-1.41-1.58-3.05-2.84-4.92-3.77-1.87-.93-3.86-1.58-5.97-1.96-2.11-.37-4.17-.56-6.19-.56-4.24,0-8.02.77-11.35,2.3-3.33,1.54-6.17,3.54-8.54,6-2.37,2.47-4.28,5.26-5.74,8.38-1.46,3.12-2.44,6.21-2.94,9.29-.56,3.45-.54,6.75.07,9.91.6,3.17,1.76,5.96,3.49,8.38,1.73,2.42,4.01,4.35,6.86,5.79,2.84,1.44,6.18,2.16,10.02,2.16,2.02,0,4.12-.21,6.31-.63s4.34-1.12,6.47-2.09c2.13-.98,4.09-2.23,5.91-3.77l.05-.05c2.04-1.74,4.6-2.68,7.03-2.68,1.52,0,2.99.37,4.25,1.13l12.29,7.43c1.73,1.05,2.03,3.31.64,5.08-1.84,2.33-4.05,4.49-6.62,6.47-3.75,2.89-7.87,5.31-12.37,7.26-4.5,1.95-9.24,3.44-14.2,4.47-4.96,1.02-9.71,1.54-14.25,1.54-7.97,0-15.03-1.47-21.17-4.4-6.14-2.93-11.21-6.82-15.23-11.66-4.01-4.84-6.84-10.33-8.47-16.48-1.63-6.14-1.94-12.38-.92-18.71.98-6.05,3.17-12.01,6.59-17.87,3.42-5.86,7.87-11.12,13.37-15.78,5.49-4.65,11.85-8.42,19.08-11.31,7.23-2.88,15.18-4.33,23.86-4.33m0-1c-8.77,0-16.92,1.48-24.23,4.4-7.29,2.91-13.81,6.77-19.36,11.48-5.56,4.71-10.13,10.1-13.59,16.04-3.46,5.94-5.72,12.07-6.72,18.22-1.04,6.44-.72,12.88.94,19.13,1.66,6.26,4.58,11.93,8.67,16.86,4.08,4.93,9.32,8.94,15.57,11.92,6.24,2.98,13.51,4.5,21.6,4.5,4.58,0,9.45-.52,14.45-1.56,5-1.03,9.84-2.56,14.39-4.53,4.56-1.98,8.79-4.47,12.59-7.39,2.62-2.02,4.91-4.25,6.8-6.64.89-1.12,1.26-2.49,1.03-3.77-.21-1.17-.9-2.16-1.93-2.78l-12.29-7.43c-1.38-.83-3.03-1.27-4.77-1.27-2.71,0-5.5,1.06-7.68,2.92l.6.81-.65-.76c-1.74,1.47-3.65,2.69-5.68,3.62-2.04.94-4.14,1.62-6.24,2.02-2.12.41-4.17.61-6.12.61-3.66,0-6.88-.69-9.57-2.06-2.69-1.36-4.87-3.21-6.5-5.48-1.64-2.29-2.76-4.98-3.32-7.98-.58-3.03-.6-6.25-.06-9.57.48-2.97,1.44-6,2.85-9.02,1.41-3,3.28-5.73,5.56-8.11,2.27-2.37,5.04-4.31,8.24-5.79,3.18-1.47,6.85-2.21,10.93-2.21,1.94,0,3.97.18,6.02.54,2,.35,3.92.98,5.7,1.87,1.74.87,3.3,2.06,4.62,3.54l.79-.62-.75.66c1.62,1.84,4.08,2.89,6.76,2.89,1.97,0,3.94-.55,5.71-1.6l13.4-7.95c2.44-1.45,3.4-4.28,2.2-6.44-2.91-5.23-7.41-9.59-13.38-12.98-7.1-4.02-16.04-6.06-26.56-6.06h0Z"/>
    </g>
    <g>
      <path class="cls-2" d="m352.58,198.43c-2.78,0-5.3-1.08-6.91-2.97-1.49-1.75-2.1-4.03-1.71-6.42l4.11-25.45c.16-1.01-.09-1.97-.72-2.71-.7-.82-1.76-1.27-2.99-1.27h-26.16c-2.49,0-4.81,1.85-5.18,4.13l-4.1,25.44c-.82,5.1-5.97,9.24-11.48,9.24h-15.02c-1.51,0-2.88-.59-3.76-1.62-.82-.96-1.15-2.21-.94-3.51l14.53-90.03c.44-2.74,3.21-4.97,6.17-4.97h15.01c2.79,0,5.31,1.09,6.93,2.98,1.49,1.75,2.1,4.04,1.72,6.43l-3.74,23.2c-.16,1.01.09,1.97.72,2.71.7.82,1.76,1.27,2.99,1.27h26.16c2.49,0,4.81-1.85,5.18-4.13l3.74-23.21c.82-5.1,5.98-9.25,11.49-9.25h15.01c1.51,0,2.88.59,3.76,1.62.82.96,1.15,2.21.94,3.51l-14.53,90.03c-.44,2.74-3.21,4.97-6.17,4.97h-15.03Z"/>
      <path class="cls-3" d="m383.61,98.79c2.73,0,4.61,2.04,4.2,4.55l-14.53,90.03c-.41,2.52-2.95,4.55-5.67,4.55h-15.03c-5.28,0-8.92-3.95-8.13-8.81l4.11-25.45c.41-2.52-1.48-4.55-4.2-4.55h-26.16c-2.73,0-5.27,2.04-5.67,4.55l-4.11,25.44c-.79,4.87-5.71,8.82-10.99,8.82h-15.02c-2.73,0-4.61-2.04-4.2-4.55l14.53-90.03c.41-2.52,2.95-4.55,5.67-4.55h15.01c5.29,0,8.94,3.95,8.15,8.83l-3.74,23.2c-.41,2.52,1.48,4.55,4.2,4.55h26.16c2.73,0,5.27-2.04,5.67-4.55l3.74-23.2c.79-4.87,5.71-8.83,10.99-8.83h15.02m0-1h-15.02c-5.75,0-11.12,4.34-11.98,9.67l-3.74,23.2c-.33,2.05-2.43,3.71-4.69,3.71h-26.16c-1.08,0-2.01-.39-2.61-1.09-.53-.62-.74-1.44-.6-2.3l3.74-23.2c.41-2.54-.24-4.97-1.83-6.84-1.71-2.01-4.37-3.16-7.31-3.16h-15.01c-3.19,0-6.18,2.42-6.66,5.4l-14.53,90.03c-.23,1.45.14,2.84,1.05,3.92.97,1.14,2.48,1.8,4.14,1.8h15.02c5.74,0,11.12-4.33,11.98-9.66l4.11-25.44c.33-2.05,2.43-3.71,4.69-3.71h26.16c1.08,0,2.01.39,2.61,1.09.53.62.74,1.44.6,2.3l-4.11,25.45c-.41,2.54.24,4.96,1.83,6.82,1.7,2,4.36,3.15,7.29,3.15h15.03c3.19,0,6.18-2.42,6.66-5.4l14.53-90.03c.23-1.45-.14-2.84-1.05-3.92-.97-1.14-2.48-1.8-4.14-1.8h0Z"/>
    </g>
    <g>
      <path class="cls-2" d="m450.53,199.27c-8.21,0-15.54-1.47-21.77-4.38-6.23-2.9-11.43-6.77-15.44-11.51-4.01-4.73-6.89-10.22-8.55-16.32-1.66-6.09-1.97-12.46-.93-18.92,1.06-6.55,3.48-12.95,7.2-19.03,3.72-6.07,8.47-11.5,14.12-16.12,5.65-4.62,12.16-8.36,19.33-11.11,7.18-2.75,14.88-4.15,22.87-4.15s15.53,1.47,21.77,4.38c6.23,2.9,11.42,6.8,15.43,11.58,4.01,4.78,6.86,10.3,8.46,16.39,1.61,6.09,1.9,12.41.87,18.78-1.06,6.55-3.47,12.93-7.18,18.96-3.71,6.03-8.43,11.42-14.03,16.04-5.6,4.62-12.08,8.38-19.26,11.18-7.19,2.8-14.89,4.22-22.89,4.22Zm12.48-76.38c-4.15,0-7.89.74-11.13,2.19-3.25,1.46-6.09,3.42-8.45,5.83-2.37,2.42-4.29,5.19-5.72,8.24-1.44,3.06-2.42,6.23-2.94,9.43-.53,3.29-.55,6.5-.05,9.54.49,3.03,1.54,5.76,3.12,8.11,1.57,2.34,3.77,4.26,6.52,5.7,2.75,1.45,6.24,2.18,10.38,2.18s7.92-.76,11.22-2.26c3.3-1.5,6.15-3.49,8.46-5.9,2.31-2.41,4.22-5.21,5.66-8.31,1.44-3.11,2.44-6.31,2.95-9.5.53-3.28.55-6.49.05-9.55-.49-3.03-1.57-5.73-3.2-8.03-1.63-2.29-3.85-4.17-6.62-5.57-2.76-1.4-6.21-2.11-10.25-2.11Z"/>
      <path class="cls-3" d="m467.36,98.23c8.18,0,15.36,1.44,21.56,4.33,6.2,2.89,11.28,6.7,15.26,11.45,3.98,4.75,6.76,10.15,8.36,16.2,1.6,6.05,1.89,12.24.86,18.57-1.05,6.52-3.42,12.78-7.12,18.78-3.69,6-8.33,11.31-13.92,15.92-5.59,4.61-11.96,8.31-19.13,11.1-7.16,2.79-14.73,4.19-22.7,4.19s-15.36-1.44-21.56-4.33c-6.2-2.88-11.29-6.68-15.27-11.38-3.99-4.7-6.8-10.08-8.45-16.13-1.65-6.05-1.95-12.29-.92-18.71,1.05-6.52,3.43-12.8,7.13-18.85,3.7-6.05,8.37-11.38,14.01-15.99,5.64-4.61,12.03-8.28,19.19-11.03,7.15-2.74,14.72-4.12,22.69-4.12m-12.63,76.38c4.24,0,8.05-.77,11.42-2.3,3.38-1.54,6.25-3.54,8.61-6,2.37-2.47,4.28-5.28,5.75-8.45,1.47-3.16,2.47-6.38,2.99-9.64.54-3.35.56-6.58.05-9.7-.51-3.12-1.6-5.86-3.29-8.24-1.69-2.37-3.95-4.28-6.8-5.73-2.85-1.44-6.34-2.16-10.48-2.16s-8.02.75-11.34,2.23c-3.32,1.49-6.19,3.47-8.6,5.93-2.42,2.47-4.36,5.26-5.82,8.38-1.46,3.12-2.46,6.31-2.98,9.57-.54,3.35-.56,6.59-.05,9.7.5,3.12,1.57,5.89,3.2,8.31,1.63,2.42,3.86,4.38,6.7,5.86,2.84,1.49,6.38,2.23,10.62,2.23m12.63-77.38c-8.06,0-15.81,1.41-23.05,4.19-7.22,2.77-13.77,6.54-19.46,11.19-5.7,4.65-10.48,10.12-14.23,16.24-3.75,6.14-6.2,12.6-7.26,19.21-1.06,6.54-.74,12.98.94,19.13,1.68,6.17,4.59,11.72,8.65,16.51,4.06,4.79,9.31,8.71,15.61,11.64,6.3,2.93,13.69,4.42,21.98,4.42s15.82-1.43,23.07-4.26c7.23-2.82,13.76-6.61,19.4-11.26,5.65-4.66,10.4-10.1,14.14-16.17,3.75-6.09,6.19-12.53,7.25-19.15,1.04-6.44.74-12.83-.88-18.99-1.63-6.17-4.51-11.75-8.56-16.58-4.05-4.84-9.3-8.78-15.6-11.71-6.3-2.93-13.7-4.42-21.98-4.42h0Zm-12.63,76.38c-4.06,0-7.47-.71-10.15-2.12-2.68-1.4-4.81-3.27-6.33-5.54-1.54-2.29-2.57-4.95-3.04-7.91-.49-3-.47-6.15.05-9.39.51-3.16,1.48-6.28,2.9-9.3,1.41-3,3.3-5.73,5.63-8.1,2.32-2.37,5.11-4.29,8.3-5.72,3.18-1.42,6.85-2.15,10.93-2.15s7.33.69,10.02,2.06c2.69,1.36,4.85,3.19,6.43,5.41,1.59,2.24,2.64,4.87,3.12,7.82.49,3,.47,6.16-.05,9.39-.51,3.15-1.49,6.31-2.91,9.37-1.42,3.06-3.29,5.81-5.57,8.18-2.26,2.36-5.06,4.31-8.31,5.79-3.23,1.47-6.93,2.21-11.01,2.21h0Z"/>
    </g>
  </g>
</svg>